<?xml version="1.0" encoding="utf-8"?>
<!-- Generator: Adobe Illustrator 22.0.0, SVG Export Plug-In . SVG Version: 6.00 Build 0)  -->
<svg version="1.1" id="Capa_1" xmlns="http://www.w3.org/2000/svg" xmlns:xlink="http://www.w3.org/1999/xlink" x="0px" y="0px"
	 viewBox="0 0 270 56.4" style="enable-background:new 0 0 270 56.4;" xml:space="preserve">
<style type="text/css">
	.st0{display:none;}
	.st1{fill:#FFFFFF;}
</style>
<rect x="-69" y="-89.8" class="st0" width="677" height="152"/>
<g>
	<path class="st1" d="M52,0.4C23.6,16.2,18.6,50.9,18.6,50.9C9.3,30.6,0,23.7,0,23.7s1.1-2.2,7.8-3.3c2.6-0.4,9.5,9.1,9.5,9.1
		S27.2,7.9,50.4,0L52,0.4z"/>
	<path class="st1" d="M200.9,23.3c2,0,4.1,0,6.1,0c-1.2,2.4-2.3,5.2-3.3,8.2c-2.3,7.2-3.1,13.8-3.3,19c-2.6,0-5.1,0-7.7,0
		c-0.7-2.9-1.9-6.6-4.1-10.6c-1.7-3.1-3.6-5.6-5.2-7.5c-0.9,2-1.8,4.3-2.5,6.9c-1.2,4.2-1.8,8.1-2.1,11.2c-2.9,0-5.8,0-8.7,0
		c0.7-4,1.8-9,3.9-14.4c1.9-5.1,4.2-9.4,6.3-12.8c1.8,0,3.5,0,5.3,0c1.4,1.5,3,3.4,4.5,5.6c3.1,4.7,4.8,9.2,5.7,12.6
		c0.2-2.6,0.7-5.7,1.7-9.1C198.4,28.8,199.7,25.8,200.9,23.3z"/>
	<g>
		<path class="st1" d="M37.8,35c1.2,0,2.3,0.2,3.3,0.6c1,0.4,1.8,1,2.5,1.7c0.7,0.7,1.2,1.5,1.5,2.5c0.3,0.9,0.4,2,0.2,3.1
			c-0.1,0.6-0.3,1.1-0.5,1.7l0,0.1H36l-1.6-3.1h6.5c-0.2-0.8-0.6-1.5-1.2-2.1c-0.6-0.5-1.5-0.8-2.5-0.8c-0.6,0-1.2,0.1-1.8,0.3
			c-0.6,0.2-1.1,0.5-1.6,0.9c-0.5,0.4-0.9,0.8-1.2,1.3c-0.3,0.5-0.5,1.1-0.6,1.7c-0.1,0.5-0.1,0.9,0.1,1.4c0.1,0.5,0.3,0.9,0.7,1.3
			c0.3,0.4,0.7,0.7,1.2,1c0.5,0.3,1.1,0.4,1.8,0.4c0.6,0,1.2-0.1,1.7-0.2c0.5-0.2,1.1-0.5,1.6-1l0,0l0.1,0l3.7,1.5l-0.1,0.1
			c-1,1-2.2,1.8-3.5,2.4c-1.4,0.6-2.8,0.9-4.2,0.9c-1.2,0-2.3-0.2-3.4-0.6c-1-0.4-1.9-1-2.5-1.7c-0.7-0.7-1.2-1.5-1.5-2.5
			c-0.3-0.9-0.4-2-0.2-3c0.2-1.1,0.6-2.1,1.2-3.1c0.6-0.9,1.4-1.8,2.3-2.5c0.9-0.7,2-1.3,3.1-1.7C35.4,35.2,36.6,35,37.8,35z"/>
		<path class="st1" d="M65.1,35.9l-0.5,0.6l-2.2,2.7l0,0c-0.7-0.4-1.5-0.6-2.3-0.6c-0.6,0-1.2,0.1-1.7,0.3c-0.6,0.2-1.1,0.4-1.5,0.7
			c-0.5,0.3-0.9,0.7-1.2,1.1c-0.4,0.4-0.6,0.9-0.8,1.4l-1.5,8.3h-4.6l2.7-15.1h4.6l-0.3,2c1.5-1.5,3.4-2.2,5.7-2.2
			C62.6,35,63.9,35.3,65.1,35.9L65.1,35.9z"/>
		<path class="st1" d="M85.3,35.3l-2.7,15.1h-4.5l1.3-7.6c0.1-0.6,0.1-1.1-0.1-1.6c-0.2-0.5-0.4-0.9-0.8-1.3
			c-0.4-0.4-0.8-0.7-1.4-0.9c-0.5-0.2-1.1-0.3-1.8-0.3c-0.7,0-1.3,0.1-1.9,0.3c-0.6,0.2-1.2,0.5-1.7,0.9c-0.5,0.4-0.9,0.8-1.3,1.3
			c-0.3,0.5-0.6,1.1-0.7,1.7c-0.1,0.6-0.1,1.1,0.1,1.6c0.2,0.5,0.4,0.9,0.8,1.3c0.4,0.4,0.8,0.7,1.4,0.9c0.5,0.2,1.1,0.3,1.8,0.3
			c0.7,0,1.3-0.1,1.9-0.3h0l0,0.1l1.2,2.7l0,0c-1.3,0.8-2.7,1.1-4.3,1.1c-1.2,0-2.3-0.2-3.3-0.6c-1-0.4-1.8-1-2.5-1.7
			c-0.7-0.7-1.2-1.5-1.5-2.5c-0.3-0.9-0.4-2-0.2-3c0.2-1.1,0.6-2.1,1.2-3.1c0.6-0.9,1.4-1.8,2.3-2.5c0.9-0.7,2-1.3,3.1-1.7
			c1.1-0.4,2.3-0.6,3.5-0.6c1.2,0,2.2,0.2,3,0.6c0.8,0.4,1.5,1,2,1.7l0.4-2H85.3z"/>
		<path class="st1" d="M100.9,44.6l3.3,2.1l0,0c-1,1.2-2.3,2.2-3.7,2.8c-1.5,0.7-3,1-4.6,1c-1.2,0-2.3-0.2-3.3-0.6
			c-1-0.4-1.8-1-2.5-1.7c-0.7-0.7-1.2-1.5-1.5-2.5c-0.3-0.9-0.4-2-0.2-3c0.2-1.1,0.6-2.1,1.2-3c0.6-0.9,1.4-1.8,2.3-2.5
			c0.9-0.7,2-1.3,3.1-1.7c1.1-0.4,2.3-0.6,3.6-0.6c1.6,0,3,0.3,4.2,1c1.2,0.7,2.1,1.6,2.7,2.8l0,0l-4.1,2.1l0,0
			c-0.2-0.7-0.7-1.3-1.3-1.8c-0.6-0.5-1.3-0.7-2.2-0.7c-0.6,0-1.2,0.1-1.8,0.3c-0.6,0.2-1.1,0.5-1.5,0.9c-0.5,0.4-0.8,0.8-1.2,1.4
			c-0.3,0.5-0.5,1.1-0.6,1.6c-0.1,0.6-0.1,1.1,0.1,1.6c0.1,0.5,0.4,0.9,0.7,1.3c0.3,0.4,0.7,0.7,1.2,0.9c0.5,0.2,1.1,0.3,1.7,0.3
			c0.8,0,1.6-0.2,2.4-0.6C99.7,46,100.4,45.4,100.9,44.6L100.9,44.6L100.9,44.6z"/>
		<path class="st1" d="M111.7,29.2h4.5l-0.6,3.5h-4.5L111.7,29.2z M108,50.4l2.7-15.1h4.5l-2.7,15.1H108z"/>
		<path class="st1" d="M125.1,45.2c-0.1,0.5,0,0.9,0.4,1.2c0.3,0.3,0.7,0.5,1.3,0.5h3.3l-0.6,3.5h-3.3c-0.9,0-1.7-0.1-2.4-0.4
			c-0.7-0.3-1.3-0.7-1.8-1.2c-0.5-0.5-0.8-1.1-1.1-1.8c-0.2-0.7-0.3-1.4-0.1-2.2l0.8-4.5H119l0.6-3.4h2.5l1-5.5h4.5L125.1,45.2z
			 M131.8,36.8l-0.6,3.4h-2.5l-1.5-3.4H131.8z"/>
		<path class="st1" d="M139.8,48.3l-3.7-13.1h4.9l0,0l2.5,11L139.8,48.3z M155.2,35.3L155.2,35.3c-0.6,1-1.1,1.9-1.6,2.8
			c-0.5,0.9-1,1.7-1.5,2.5c-1.6,2.8-3.1,5.2-4.3,7.3c-1.3,2-2.5,3.7-3.8,4.9c-1.3,1.3-2.6,2.3-4,2.8c-1.4,0.6-3.1,0.9-5,0.9H135
			l0.7-4.1h0.1c0.6,0,1.1,0,1.6-0.1c0.5,0,0.9-0.1,1.3-0.3c0.4-0.1,0.8-0.3,1.2-0.5c0.4-0.2,0.7-0.5,1.1-0.9
			c0.4-0.4,0.7-0.8,1.1-1.3c0.4-0.5,0.8-1.1,1.3-1.9c0.4-0.7,0.9-1.6,1.5-2.5c0.6-1,1.2-2,1.9-3.2c0.5-0.9,1.1-1.9,1.7-2.9
			s1.2-2.1,1.9-3.4l0,0H155.2z"/>
	</g>
	<g>
		<path class="st1" d="M218.3,35.2c1.2,0,2.3,0.2,3.3,0.6c1,0.4,1.8,1,2.5,1.7c0.7,0.7,1.2,1.5,1.5,2.5c0.3,0.9,0.4,2,0.2,3.1
			c-0.1,0.6-0.3,1.1-0.5,1.7l0,0.1h-8.7l-1.6-3.1h6.5c-0.2-0.8-0.6-1.5-1.2-2.1c-0.6-0.5-1.5-0.8-2.5-0.8c-0.6,0-1.2,0.1-1.8,0.3
			c-0.6,0.2-1.1,0.5-1.6,0.9c-0.5,0.4-0.9,0.8-1.2,1.3c-0.3,0.5-0.5,1.1-0.6,1.7c-0.1,0.5-0.1,0.9,0.1,1.4c0.1,0.5,0.3,0.9,0.7,1.3
			c0.3,0.4,0.7,0.7,1.2,1c0.5,0.3,1.1,0.4,1.8,0.4c0.6,0,1.2-0.1,1.7-0.2s1.1-0.5,1.6-1l0,0l0.1,0l3.7,1.5l-0.1,0.1
			c-1,1-2.2,1.8-3.5,2.4c-1.4,0.6-2.8,0.9-4.2,0.9c-1.2,0-2.3-0.2-3.4-0.6c-1-0.4-1.9-1-2.5-1.7c-0.7-0.7-1.2-1.5-1.5-2.5
			c-0.3-0.9-0.4-2-0.2-3c0.2-1.1,0.6-2.1,1.2-3.1c0.6-0.9,1.4-1.8,2.3-2.5c0.9-0.7,2-1.3,3.1-1.7C215.9,35.4,217.1,35.2,218.3,35.2z
			"/>
		<path class="st1" d="M234.5,35.5l0.5,10.6l-3.5,2.7l0-0.1l-1.7-13.4L234.5,35.5L234.5,35.5z M249.6,35.5h4.7l0,0L247,50.6h-5.4
			l-0.6-8.9l-3.9,8.9h-3.5l0-0.1l6.1-15h0h4.7l0.6,11.4L249.6,35.5z"/>
		<path class="st1" d="M264.4,41.6c0.7,0.2,1.4,0.4,1.9,0.7c0.6,0.2,1.1,0.5,1.5,0.8c0.4,0.3,0.7,0.7,0.9,1.2c0.2,0.5,0.2,1,0.1,1.6
			l0,0c-0.3,1.5-1.1,2.7-2.4,3.6c-1.3,0.9-3,1.3-5.1,1.3c-1.3,0-2.5-0.2-3.7-0.6c-1.2-0.4-2.3-1-3.2-1.7l0,0l0,0l2.9-3.2l0,0
			c0.6,0.6,1.3,1.1,2.1,1.5c0.8,0.3,1.7,0.5,2.7,0.5c1.3,0,2.1-0.4,2.2-1.1c0.1-0.4-0.1-0.6-0.5-0.8c-0.4-0.2-0.9-0.4-1.4-0.5
			c-0.1,0-0.2-0.1-0.3-0.1c-0.1,0-0.2,0-0.3-0.1c-0.7-0.2-1.3-0.3-2-0.5c-0.6-0.2-1.2-0.5-1.7-0.8c-0.5-0.3-0.9-0.8-1.1-1.3
			c-0.3-0.5-0.3-1.2-0.2-2l0-0.1c0.1-0.7,0.4-1.3,0.8-1.9c0.4-0.6,0.9-1.1,1.5-1.5c0.6-0.4,1.3-0.7,2.2-1c0.8-0.2,1.7-0.3,2.6-0.3
			c1.1,0,2.2,0.1,3.2,0.4c1.1,0.3,2,0.7,2.9,1.3l0,0.1l-2.7,3.4l0,0c-0.4-0.5-1-0.8-1.8-1.1c-0.7-0.3-1.5-0.4-2.4-0.4
			c-0.2,0-0.3,0-0.6,0c-0.2,0-0.4,0.1-0.6,0.2c-0.2,0.1-0.3,0.2-0.5,0.3c-0.1,0.1-0.2,0.3-0.3,0.6c0,0.2,0,0.3,0.2,0.5
			c0.2,0.2,0.4,0.3,0.6,0.4c0.3,0.1,0.6,0.3,0.9,0.4c0.3,0.1,0.7,0.2,1,0.3c0.1,0,0.1,0,0.2,0C264.2,41.6,264.3,41.6,264.4,41.6z"/>
	</g>
</g>
</svg>
